<svg width="512" height="512" viewBox="0 0 512 512" xmlns="http://www.w3.org/2000/svg" role="img" aria-label="Pesca Culatra">
  <defs>
    <linearGradient id="g" x1="0" y1="0" x2="1" y2="1">
      <stop offset="0%" stop-color="#5ed0b3"/>
      <stop offset="55%" stop-color="#147e96"/>
      <stop offset="100%" stop-color="#0b355e"/>
    </linearGradient>
  </defs>
  <rect width="512" height="512" rx="110" fill="url(#g)"/>
  <path d="M118 266c49-58 112-86 190-84 35 0 69 9 102 26-23 25-54 44-94 58 39 15 70 35 94 61-34 17-68 25-102 25-79 2-142-26-190-86Z" fill="#fff" opacity=".96"/>
  <circle cx="339" cy="229" r="13" fill="#0b355e"/>
  <path d="M103 365c68-28 134-29 199-4 39 15 77 17 113 7" fill="none" stroke="#fff" stroke-width="26" stroke-linecap="round" opacity=".9"/>
  <path d="M95 415c71-24 137-22 199 5 41 17 80 20 121 6" fill="none" stroke="#fff" stroke-width="20" stroke-linecap="round" opacity=".75"/>
  <path d="M117 147c35-21 67-30 96-27 28 3 55 18 81 45" fill="none" stroke="#fff" stroke-width="22" stroke-linecap="round" opacity=".85"/>
</svg>
