<svg width="512" height="512" viewBox="0 0 512 512" xmlns="http://www.w3.org/2000/svg" role="img" aria-label="Culatra Hoje">
  <defs>
    <linearGradient id="g" x1="0" y1="0" x2="1" y2="1">
      <stop offset="0" stop-color="#43c4b8"/>
      <stop offset="0.55" stop-color="#0b6f86"/>
      <stop offset="1" stop-color="#08365b"/>
    </linearGradient>
  </defs>
  <rect x="40" y="40" width="432" height="432" rx="106" fill="url(#g)"/>
  <path d="M104 299c69-55 142-74 219-58 36 8 64 24 86 47-49-17-92-19-128-6-41 15-73 43-114 49-25 3-46-6-63-32Z" fill="#fff" opacity=".95"/>
  <path d="M172 214c48-49 109-65 184-48 22 5 43 13 63 25-31 0-60 7-88 22-45 25-91 28-159 1Z" fill="#fff" opacity=".88"/>
  <circle cx="337" cy="257" r="12" fill="#0b5f73"/>
  <path d="M111 369c38-21 76-29 113-25 45 5 91 30 143 18 16-4 31-10 45-18-29 35-67 56-112 61-58 6-112-19-189-36Z" fill="#fff" opacity=".82"/>
</svg>
